<?xml version="1.0" encoding="UTF-8"?>
<svg width="397px" height="171px" viewBox="0 0 397 171" version="1.1" xmlns="http://www.w3.org/2000/svg" xmlns:xlink="http://www.w3.org/1999/xlink">
    <!-- Generator: Sketch 64 (93537) - https://sketch.com -->
    <title>Artboard</title>
    <desc>Created with Sketch.</desc>
    <defs>
        <path d="M22.149,70.414 C31.257,70.414 38.502,65.17 40.227,54.889 L30.498,54.889 C29.532,58.822 27.048,61.858 22.218,61.858 C19.596,61.858 17.457,60.892 16.077,59.305 C14.244541,57.2689344 13.6804507,54.9658439 13.6624484,45.8952018 L13.662,45.436 C13.662,35.983 14.214,33.637 16.077,31.567 C17.457,29.98 19.596,29.014 22.218,29.014 C27.048,29.014 29.532,32.05 30.498,35.983 L40.227,35.983 C38.502,25.702 31.326,20.458 22.149,20.458 C16.767,20.458 12.351,22.39 8.901,25.84 C3.933,30.808 4.071,36.949 4.071,45.436 C4.071,53.923 3.933,60.064 8.901,65.032 C12.351,68.482 16.767,70.414 22.149,70.414 Z M64.998,70.414 C70.587,70.414 74.796,68.482 78.246,65.032 C83.03,60.248 83.1432016,54.3762798 83.1450245,46.3694053 L83.1450245,44.5025947 C83.1432016,36.4957202 83.03,30.624 78.246,25.84 C74.796,22.39 70.587,20.458 64.998,20.458 C59.409,20.458 55.131,22.39 51.681,25.84 C46.713,30.808 46.851,36.949 46.851,45.436 C46.851,53.923 46.713,60.064 51.681,65.032 C55.131,68.482 59.409,70.414 64.998,70.414 Z M64.998,61.858 C62.376,61.858 60.168,60.823 58.788,59.236 C56.955541,57.1999344 56.4582069,54.9636001 56.4423934,45.8951468 L56.442,45.436 C56.442,35.983 56.925,33.706 58.788,31.636 C60.168,30.049 62.376,29.014 64.998,29.014 C67.62,29.014 69.759,30.049 71.139,31.636 C73.002,33.706 73.554,35.983 73.554,45.436 C73.554,54.889 73.002,57.166 71.139,59.236 C69.759,60.823 67.62,61.858 64.998,61.858 Z M110.124,70 L126.408,20.872 L116.403,20.872 L106.536,52.888 L96.669,20.872 L86.733,20.872 L102.948,70 L110.124,70 Z M141.933,70 L141.933,20.872 L132.342,20.872 L132.342,70 L141.933,70 Z M171.12,70 C176.226,70 180.849,68.551 184.092,65.308 C189.511636,59.8883636 189.078065,52.872398 189.060508,45.6314951 L189.06,45.229 C189.06,37.846 189.612,31.084 184.092,25.564 C180.849,22.321 176.226,20.872 171.12,20.872 L153.387,20.872 L153.387,70 L171.12,70 Z M170.223,61.444 L162.978,61.444 L162.978,29.428 L170.223,29.428 C173.535,29.428 175.743,30.463 177.399,32.464 C179.193,34.672 179.469,37.777 179.469,45.229 C179.469,52.681 179.193,56.2 177.399,58.408 C175.743,60.409 173.535,61.444 170.223,61.444 Z" id="path-1"></path>
        <path d="M22.149,131.414 C31.257,131.414 38.502,126.17 40.227,115.889 L30.498,115.889 C29.532,119.822 27.048,122.858 22.218,122.858 C19.596,122.858 17.457,121.892 16.077,120.305 C14.244541,118.268934 13.6804507,115.965844 13.6624484,106.895202 L13.662,106.436 C13.662,96.983 14.214,94.637 16.077,92.567 C17.457,90.98 19.596,90.014 22.218,90.014 C27.048,90.014 29.532,93.05 30.498,96.983 L40.227,96.983 C38.502,86.702 31.326,81.458 22.149,81.458 C16.767,81.458 12.351,83.39 8.901,86.84 C3.933,91.808 4.071,97.949 4.071,106.436 C4.071,114.923 3.933,121.064 8.901,126.032 C12.351,129.482 16.767,131.414 22.149,131.414 Z M52.44,131 L55.407,122.306 L72.864,122.306 L75.762,131 L85.767,131 L67.827,81.872 L60.306,81.872 L42.435,131 L52.44,131 Z M70.311,114.233 L58.098,114.233 L64.308,96.362 L70.311,114.233 Z M123.717,131 L123.717,122.444 L101.43,122.444 L101.43,81.872 L91.839,81.872 L91.839,131 L123.717,131 Z M163.392,131 L163.392,122.444 L141.105,122.444 L141.105,81.872 L131.514,81.872 L131.514,131 L163.392,131 Z M203.55,131 L203.55,122.444 L180.78,122.444 L180.78,110.507 L200.169,110.507 L200.169,101.951 L180.78,101.951 L180.78,90.428 L203.55,90.428 L203.55,81.872 L171.189,81.872 L171.189,131 L203.55,131 Z M222.525,131 L222.525,111.404 L229.425,111.404 L239.016,131 L250.125,131 L239.154,109.817 C243.915,108.092 248.124,103.814 248.124,96.914 C248.124,88.703 242.19,81.872 232.185,81.872 L212.934,81.872 L212.934,131 L222.525,131 Z M231.564,103.4 L222.525,103.4 L222.525,90.428 L231.564,90.428 C235.773,90.428 238.533,93.119 238.533,96.914 C238.533,100.709 235.773,103.4 231.564,103.4 Z" id="path-2"></path>
        <polygon id="path-3" points="0 0.155477106 106 0.155477106 106 94.8275753 0 94.8275753"></polygon>
        <polygon id="path-5" points="0.0675627907 0.161738943 17.9323535 0.161738943 17.9323535 23.5294118 0.0675627907 23.5294118"></polygon>
    </defs>
    <g id="Artboard" stroke="none" stroke-width="1" fill="none" fill-rule="evenodd">
        <g id="logo" transform="translate(13.000000, 12.000000)">
            <g id="COVID-CALLER" transform="translate(122.000000, 0.000000)" fill="#000000" fill-rule="nonzero">
                <g id="COVID">
                    <use xlink:href="#path-1"></use>
                    <use xlink:href="#path-1"></use>
                </g>
                <g id="CALLER">
                    <use xlink:href="#path-2"></use>
                    <use xlink:href="#path-2"></use>
                </g>
            </g>
            <g id="Group-21" transform="translate(0.000000, 24.000000)">
                <path d="M19.6216333,23.204466 C15.2852143,20.7219989 9.71848321,22.2008886 7.21486947,26.5006389 C4.71104291,30.8001784 6.20248503,36.3191161 10.5393297,38.8015833 C13.6643777,40.5903858 17.4725776,40.3825817 20.3124468,38.3498996 C21.0843448,38.843777 23.8837782,40.4781505 24.4279588,40.810004 C25.0423699,41.1819416 25.8385293,40.9908041 26.2145822,40.3851133 C26.5978709,39.7570599 26.3969688,38.9866027 25.7868141,38.6169858 C25.2239054,38.2773264 21.909022,36.3421117 20.9896399,35.6997124 C20.4905771,35.3503485 19.8159379,35.393597 19.3677391,35.8013993 C17.3112601,37.6646737 14.2815555,37.9728987 11.83668,36.5735442 C8.73780894,34.7995095 7.6730708,30.8594605 9.46224801,27.7869143 C11.2512124,24.714579 15.2254119,23.6588923 18.324283,25.4327161 C20.7691584,26.8320706 22.0147935,29.587531 21.4152798,32.2849752 C21.2833314,32.8737884 21.5829819,33.4748379 22.1375906,33.7282111 C23.158275,34.1965614 26.5063583,36.0752365 27.0843772,36.3889467 C27.7121961,36.7279732 28.4127993,36.5602532 28.8426956,35.8720737 C29.1836331,35.246341 28.9527235,34.467234 28.3206483,34.1256759 C27.7585908,33.8242018 24.9310651,32.2377182 24.1136237,31.8221101 C24.4694587,28.3670779 22.7468941,24.9932685 19.6216333,23.204466" id="Fill-1" fill="#414141" fill-rule="nonzero"></path>
                <path d="M24.1138066,74.1781425 C24.9310402,73.7623216 27.7585832,72.1758307 28.3206441,71.8745663 C28.9527232,71.5330066 29.1836342,70.7536852 28.8426946,70.1279495 C28.4857934,69.4849144 27.712401,69.2722571 27.0843655,69.6112852 C26.506343,69.9247859 23.1582393,71.8034695 22.1375486,72.2716109 C21.5829364,72.5254072 21.2832841,73.1262485 21.4154461,73.7150644 C22.0147507,76.4125208 20.769108,79.1679937 18.3242176,80.5673546 C15.2253275,82.3411864 11.2513165,81.2854949 9.46212829,78.2131457 C7.67315294,75.1405855 8.73789761,71.2005186 11.8365749,69.4266868 C14.2814653,68.027115 17.3114013,68.3353415 19.367893,70.1988353 C19.8158817,70.6064284 20.4907378,70.6496772 20.9895908,70.3003117 C21.9089786,69.6579094 25.224095,67.722686 25.7870072,67.383025 C26.3971657,67.0134064 26.6008356,66.3281774 26.2147779,65.6148894 C25.83851,65.0091959 25.0423457,64.8180575 24.4281436,65.1899968 C23.8837469,65.5218519 21.0842963,67.1564438 20.3126064,67.6503234 C17.472507,65.6174211 13.6644965,65.4096161 10.5392166,67.1984267 C6.20255817,69.6811161 4.71110691,75.1998679 7.21473599,79.4996378 C9.71857789,83.7991968 15.2851303,85.2778822 19.6217887,82.7956147 C22.7470686,81.0065932 24.4694309,77.6329795 24.1138066,74.1781425" id="Fill-3" fill="#414141" fill-rule="nonzero"></path>
                <g id="Group-7" transform="translate(0.000000, 6.000000)">
                    <g id="Fill-5-Clipped">
                        <mask id="mask-4" fill="white">
                            <use xlink:href="#path-3"></use>
                        </mask>
                        <g id="path-1"></g>
                        <path d="M96.9524336,53.954611 C94.1351656,53.954611 91.6816896,52.1685684 90.8434416,49.5151715 C90.6615456,48.9366513 90.1340896,48.5104294 89.5103856,48.6120325 C88.4737056,48.6944652 79.6388176,48.8316401 78.5476536,48.9281312 C77.9309456,48.9813823 77.4365616,49.4702276 77.3774136,50.0875146 C76.6661536,57.0178285 73.0299296,63.3425706 67.3949696,67.446741 C66.8887136,67.8135348 66.7144496,68.4947231 66.9855976,69.057907 C67.7398936,70.6443643 71.5416896,77.2615617 72.2166976,78.6803845 C72.4159776,79.2295101 73.0710576,79.5177052 73.6614776,79.3886244 C76.3672336,78.7913599 79.1331976,80.033815 80.5419376,82.4854966 C82.3223136,85.5842859 81.2652816,89.5572455 78.1857696,91.3507433 C75.1003216,93.1340168 71.1477936,92.0675034 69.3676296,88.9687141 C67.9588896,86.5168195 68.2711656,83.4885348 70.1388856,81.4324025 C70.5450776,80.982963 70.6245776,80.268972 70.2508216,79.8210235 C69.3657216,78.5240392 65.5639256,71.9068419 64.5738856,70.4573464 C64.2238736,69.9397455 63.5497136,69.7508105 62.9804936,70.007907 C56.6260056,72.859824 49.3573736,72.861741 43.0293856,70.0155751 C42.4675856,69.7584787 41.7991496,69.9444316 41.4448976,70.4545774 C40.8163176,71.3557993 36.2805776,78.9760348 35.6910056,79.8369989 C35.2918096,80.3288262 35.3952656,81.0012814 35.8029416,81.4485908 C37.6706616,83.5045101 37.9829376,86.5330078 36.5741976,88.9846895 C34.7921256,92.0868868 30.8332376,93.1527612 27.7463056,91.3618195 C24.6593736,89.5708778 23.5985256,85.592593 25.3808096,82.4906087 C26.7882776,80.0410572 29.5553016,78.796472 32.2657216,79.3962926 C32.8506296,79.5247343 33.4785736,79.273815 33.7102896,78.6878397 C33.9536656,78.1766289 38.8654936,69.2389608 38.9538976,69.0534339 C39.2250456,68.490037 39.0507816,67.8090617 38.5445256,67.4420549 C32.9097776,63.3380975 29.2737656,57.0131424 28.5622936,50.0830415 C28.5029336,49.4657545 28.0085496,48.9769092 27.3920536,48.9236581 C27.0079096,48.8897904 16.9215856,48.6640056 16.4895296,48.6297119 C15.8658256,48.5278957 15.3381576,48.9541177 15.1564736,49.5324249 C14.3184376,52.1860348 11.8647496,53.9718643 9.0474816,53.9720774 C5.4829136,53.9720774 2.5850856,51.059667 2.5850856,47.4777836 C2.5850856,43.8959002 5.4829136,40.9837029 9.0474816,40.9834899 C11.8622056,40.9837029 14.3184376,42.7695325 15.1564736,45.4282545 C15.3381576,46.0014496 15.8683696,46.4225594 16.4895296,46.3311805 C17.4462856,46.2564159 26.7535096,46.0964496 27.4166456,46.0378733 C28.0335656,45.9846222 28.5277376,45.4957769 28.5868856,44.8784899 C29.2983576,37.948176 32.9343696,31.6234339 38.5693296,27.5194765 C39.0755856,27.1524697 39.2498496,26.4712814 38.9787016,25.9080975 C38.7196376,25.3642971 34.2137896,17.2168756 33.7664696,16.2734787 C33.5421736,15.6800482 32.9110496,15.434028 32.3216896,15.5650258 C29.6159336,16.1622904 26.8499696,14.9198352 25.4412296,12.4681536 C23.6646696,9.37575448 24.7142816,5.41429709 27.7785296,3.61504821 C30.8612216,1.847963 34.8003936,2.91511547 36.5769536,6.00751457 C37.9854816,8.45919619 37.6732056,11.4874809 35.8054856,13.5438262 C35.3978096,13.9911357 35.2945656,14.6633778 35.6937616,15.1554182 C36.2831216,16.0165953 41.0516376,24.0112926 41.3906256,24.5086581 C41.7404256,25.026259 42.4145856,25.2151939 42.9840176,24.9583105 C49.3382936,22.1061805 56.6069256,22.1042635 62.9353376,24.9504294 C63.4967136,25.2075258 64.1655736,25.0215729 64.5196136,24.5116401 C64.9016376,23.9637926 69.6932616,15.9439608 70.2359816,15.148602 C70.6250016,14.6537926 70.5274816,13.9817635 70.1240456,13.5370101 C68.2520856,11.4783217 67.9410816,8.44790695 69.3483376,5.99835538 C71.1306216,2.89615807 75.0892976,1.83028363 78.1764416,3.62122534 C81.2633736,5.41216704 82.3240096,9.39045179 80.5419376,12.4924361 C79.1331976,14.9441177 76.3672336,16.1865729 73.6614776,15.5893083 C73.0719056,15.4583105 72.4409936,15.7043307 72.2166976,16.2977612 C71.8692296,17.0307096 67.0865096,25.7958442 67.0243936,25.929824 C66.7621496,26.4927948 66.9362016,27.167593 67.4384296,27.5277836 C73.0551576,31.6119316 76.6879896,37.9388038 77.4075176,44.8948913 C77.4704816,45.5187814 77.9705896,46.0110348 78.5915376,46.0566177 C78.7836096,46.071315 88.9320496,46.2685572 89.5103856,46.3137141 C90.1315456,46.405093 90.6617576,45.9839832 90.8434416,45.4105751 C91.6816896,42.7520661 94.1377096,40.9660235 96.9524336,40.9660235 C100.51679,40.9660235 103.41483,43.8784339 103.41483,47.4603173 C103.41483,51.0422007 100.51679,53.954611 96.9524336,53.954611 M96.9524336,38.3684339 C93.3552176,38.3684339 90.1743696,40.4588599 88.7454896,43.6652164 C88.1213616,43.6311357 80.0488256,43.5391177 79.8436096,43.5299585 C78.8489056,36.6347904 75.2540216,30.3792747 69.8266096,26.0868083 C70.0118976,25.7223576 73.9860496,18.5449585 74.1166416,18.2876491 C77.5932296,18.6495437 80.9803536,16.9239944 82.7802336,13.7911244 C85.2746256,9.45009305 83.7887176,3.87789574 79.4687936,1.37147197 C75.1488696,-1.13473879 69.6037976,0.358209641 67.1096176,4.69945404 C65.3110096,7.82998094 65.5219496,11.6434002 67.5709296,14.4899922 C67.2105296,15.0452948 63.3902896,21.5202052 62.9830376,22.1515504 C56.5702496,19.5744092 49.3815416,19.5737702 42.9420416,22.1555975 C42.5839736,21.5919877 38.7601296,15.1183554 38.3586016,14.4965953 C40.4088536,11.6523464 40.6153416,7.84148318 38.8156736,4.70882623 C36.3270056,0.37716704 30.8018616,-1.11705942 26.4861776,1.36550785 C22.1887256,3.88002578 20.7140536,9.43560874 23.2027216,13.7670549 C25.0026016,16.8997119 28.3899376,18.6252612 31.8665256,18.2633666 C32.2012736,18.9236805 35.8686616,25.4882657 36.1752136,26.0819092 C30.7304176,30.394824 27.1365936,36.6511917 26.1512176,43.5205863 C25.4032816,43.5595661 17.9131096,43.646685 17.2544256,43.6826827 C15.8255456,40.4763262 12.6449096,38.3859002 9.0474816,38.3859002 C4.0593336,38.3859002 -4.24e-05,42.4651491 -4.24e-05,47.4777836 C-4.24e-05,52.4904182 4.0593336,56.569454 9.0474816,56.569454 C12.6472416,56.569454 15.8280896,54.4843531 17.2544256,51.2779966 C17.5414736,51.29312 25.7197976,51.4198576 26.1264136,51.4409451 C27.1117896,58.3103397 30.7056136,64.5667074 36.1504096,68.8798352 C36.0514056,69.0711132 32.0876416,76.1484002 31.8105576,76.6977388 C28.3326976,76.3381872 24.9406976,78.0611805 23.1420896,81.1917074 C20.6479096,85.5327388 22.1338176,91.1051491 26.4537416,93.6115729 C30.7736656,96.1177836 36.3187376,94.6248352 38.8129176,90.2838038 C40.6127976,87.1509339 40.4060976,83.3400706 38.3560576,80.4956087 C38.7700936,79.8546783 42.2702136,73.9167522 42.9814736,72.814454 C49.3942616,75.3918083 56.5829696,75.3924473 63.0222576,72.8101939 C63.7337296,73.9267635 66.7735976,79.2282321 67.5859816,80.4794204 C65.5357296,83.3238823 65.3290296,87.1345325 67.1289096,90.2674025 C69.6211816,94.6054518 75.1594696,96.0988262 79.4781216,93.6004966 C83.7908376,91.0913038 85.2729296,85.5244316 82.7804456,81.1868083 C80.9807776,78.0539383 77.5932296,76.328389 74.1166416,76.6902836 C73.4443896,75.3579406 70.3956176,70.0615841 69.7892976,68.8843083 C75.2340936,64.5711805 78.8279176,58.3150258 79.8130816,51.4454182 C81.1187896,51.3774697 87.9861056,51.3005751 88.7454896,51.2605303 C90.1720376,54.4668868 93.3528856,56.5522007 96.9524336,56.5522007 C101.940794,56.5522007 106.00017,52.4729518 106.00017,47.4603173 C106.00017,42.4476827 101.940794,38.3684339 96.9524336,38.3684339" id="Fill-5" fill="#414141" fill-rule="nonzero" mask="url(#mask-4)"></path>
                    </g>
                </g>
                <g id="Group-10" transform="translate(44.000000, 83.000000)">
                    <g id="Fill-8-Clipped">
                        <mask id="mask-6" fill="white">
                            <use xlink:href="#path-5"></use>
                        </mask>
                        <g id="path-3"></g>
                        <path d="M12.7385163,6.27671436 C12.783307,5.36267091 12.8107256,2.12621092 12.828307,1.49028087 C12.8456791,0.773163752 12.2897721,0.182384738 11.5844233,0.162034976 C10.8568884,0.146984632 10.2934465,0.707662957 10.2758651,1.41948066 C10.2610047,2.07597244 10.2287721,5.90808691 10.1289349,7.02372019 C10.074307,7.6299735 10.4430977,8.19022787 11.0138651,8.37210387 C13.6255395,9.21025967 15.3801209,11.6689772 15.3801209,14.4814838 C15.3801209,18.0458718 12.5191674,20.9442289 8.99995814,20.9442289 C5.48095814,20.9442289 2.61979535,18.0458718 2.61979535,14.4814838 C2.61979535,11.6689772 4.37437674,9.21025967 6.98626047,8.37210387 C7.55702791,8.19022787 7.9258186,7.6299735 7.8709814,7.02372019 C7.77135349,5.90808691 7.73891163,2.07597244 7.72405116,1.41948066 C7.70646977,0.707662957 7.21795814,0.187472178 6.41549302,0.162034976 C5.71014419,0.182384738 5.15444651,0.773163752 5.1718186,1.49028087 C5.1891907,2.12621092 5.2166093,5.36267091 5.2616093,6.27671436 C2.11872558,7.7054372 0.0675627907,10.8865713 0.0675627907,14.4814838 C0.0675627907,19.4699311 4.07528372,23.5294966 8.99995814,23.5294966 C13.9246326,23.5294966 17.9323535,19.4699311 17.9323535,14.4814838 C17.9323535,10.8865713 15.8814,7.7054372 12.7385163,6.27671436" id="Fill-8" fill="#414141" fill-rule="nonzero" mask="url(#mask-6)"></path>
                    </g>
                </g>
                <path d="M62,9.29290164 C62,4.16943959 57.9619467,0 53,0 C48.0378424,0 44,4.16943959 44,9.29290164 C44,12.9851123 46.066687,16.2521276 49.2331467,17.7197372 C49.188017,18.658302 49.1603908,21.9823584 49.1428873,22.6357179 C49.1251728,23.3720265 49.6852872,23.9790129 50.3959744,23.9996957 C51.1292265,24.0151534 51.6967219,23.4397355 51.7142255,22.7084344 C51.7291984,22.0341743 51.7620967,18.0983418 51.8624786,16.9522956 C51.91752,16.3298515 51.5459381,15.7542158 50.9708508,15.567635 C48.3391991,14.7067941 46.5713382,12.1813124 46.5713382,9.29290164 C46.5713382,5.6318241 49.4541556,2.65523916 53,2.65523916 C56.5458444,2.65523916 59.4284509,5.6318241 59.4284509,9.29290164 C59.4284509,12.1813124 57.66059,14.7067941 55.0289383,15.567635 C54.4540619,15.7542158 54.0822691,16.3298515 54.1375214,16.9522956 C54.2379033,18.0983418 54.2705907,22.0341743 54.2855637,22.7084344 C54.3032781,23.4397355 54.795487,23.9737878 55.6040256,23.9996957 C56.3147128,23.9790129 56.8746163,23.3720265 56.8571127,22.6357179 C56.8393983,21.9823584 56.8117721,18.658302 56.7668533,17.7197372 C59.933313,16.2521276 62,12.9851123 62,9.29290164" id="Fill-11" fill="#414141" fill-rule="nonzero"></path>
                <path d="M95.4607075,67.1984789 C92.3354404,65.4096738 88.5274456,65.6174782 85.6873578,67.6503742 C84.9156712,67.1564961 82.1162321,65.5219093 81.5718376,65.1898443 C80.957638,64.8181171 80.1612642,65.0092549 79.7852106,65.6149465 C79.402134,66.2430009 79.6030364,67.0134592 80.2129796,67.3830766 C80.7761023,67.7227365 84.0909923,69.657954 85.0103763,70.3003542 C85.5092272,70.6497186 86.1838678,70.60647 86.6322803,70.1988782 C88.6887635,68.3353901 91.7182614,68.0271646 94.1631417,69.4267321 C97.2620191,71.2005584 98.3269722,75.140613 96.5380042,78.2131636 C94.7486106,81.2855033 90.774403,82.3411915 87.6757385,80.5673653 C85.2308582,79.1680088 83.9852206,76.4125443 84.5847355,73.7150963 C84.716897,73.1262822 84.4168203,72.5254429 83.8624232,72.2716473 C82.8415239,71.8035074 79.4938596,69.9248296 78.9156266,69.6113299 C78.2878065,69.2723029 77.5874147,69.4398122 77.1573048,70.1279926 C76.8163665,70.7537263 77.0472766,71.5330453 77.6793531,71.8746039 C78.2414117,72.1758675 81.0689431,73.7623534 81.8861733,74.178173 C81.5305505,77.6329992 83.2531185,81.0066025 86.3781727,82.7956185 C90.7148133,85.2778782 96.2813428,83.7991974 98.7851744,79.4996518 C101.289006,75.1998953 99.7973481,69.6811606 95.4607075,67.1984789" id="Fill-13" fill="#414141" fill-rule="nonzero"></path>
                <path d="M94.1632471,36.5734398 C91.7183713,37.9727977 88.6886662,37.6645719 86.6321868,35.801293 C86.1839879,35.3934898 85.5093486,35.3502411 85.0104986,35.6996059 C84.0911164,36.3420068 80.7762325,38.2772261 80.2131108,38.6170973 C79.6031688,38.9865042 79.3992873,39.6717317 79.7851299,40.3850182 C80.1613956,40.9907104 80.9575551,41.1820594 81.5719664,40.8099099 C82.1163598,40.4780556 84.9157937,38.8436781 85.687479,38.3497995 C88.5275615,40.3824866 92.3355492,40.5905021 95.4608105,38.8014843 C99.797443,36.3190111 101.288885,30.80006 98.7852713,26.5005102 C96.2814443,22.2009603 90.7149251,20.7220671 86.3782926,23.2043293 C83.2530313,24.993347 81.5306793,28.3671646 81.8860886,31.8219942 C81.0690728,32.2376033 78.2415466,33.8243018 77.6794891,34.1255656 C77.0472009,34.4671245 76.8162913,35.2462334 77.1574417,35.8721786 C77.5143408,36.5150014 78.2877286,36.7278692 78.9155475,36.3888419 C79.4937793,36.0753418 82.8416503,34.1964512 83.8625477,33.7283108 C84.4169437,33.474726 84.7168071,32.873886 84.5846459,32.2850713 C83.9853448,29.5876207 85.2307673,26.8321535 87.6758559,25.4325847 C90.7745147,23.6587566 94.7487149,24.7146569 96.5378924,27.7869996 C98.326857,30.8593423 97.2621187,34.7994008 94.1632471,36.5734398" id="Fill-15" fill="#414141" fill-rule="nonzero"></path>
                <path d="M53.3561587,68.3699251 C51.7929897,68.3699251 50.5204602,67.0444277 50.5204602,65.4109559 C50.5204602,63.7774842 51.7929897,62.4522025 53.3561587,62.4522025 C58.5669977,62.4522025 62.8081427,58.0290613 62.8081427,52.5890441 C62.8081427,50.9553567 64.0806723,49.6298593 65.6438413,49.6298593 C67.2068036,49.6298593 68.4795398,50.9553567 68.4795398,52.5890441 C68.4795398,61.2910444 61.6956096,68.3699251 53.3561587,68.3699251 M65.6438413,47 C62.6901092,47 60.2876826,49.5067127 60.2876826,52.5890441 C60.2876826,56.5752413 57.1789152,59.8216962 53.3561587,59.8216962 C50.4022199,59.8216962 48,62.3286246 48,65.4109559 C48,68.4930717 50.4022199,71 53.3561587,71 C63.0838988,71 71,62.7396884 71,52.5890441 C71,49.5067127 68.5975734,47 65.6438413,47" id="Fill-17" fill="#414141" fill-rule="nonzero"></path>
                <path d="M43.1916506,53.4108407 C43.1916506,55.0442831 41.919121,56.369541 40.3561587,56.369541 C38.7929897,56.369541 37.5204602,55.0442831 37.5204602,53.4108407 C37.5204602,44.7087811 44.3043904,37.6300277 52.6438413,37.6300277 C54.2068036,37.6300277 55.4793331,38.9555012 55.4793331,40.5889436 C55.4793331,42.2226016 54.2068036,43.5480752 52.6438413,43.5480752 C47.4327956,43.5480752 43.1916506,47.9707056 43.1916506,53.4108407 M52.6438413,46.1778872 C55.5975734,46.1778872 58,43.6712196 58,40.5889436 C58,37.5068833 55.5975734,35 52.6438413,35 C42.9161012,35 35,43.2601632 35,53.4108407 C35,56.4931167 37.4022199,59 40.3561587,59 C43.3098908,59 45.7123174,56.4931167 45.7123174,53.4108407 C45.7123174,49.4244995 48.8210848,46.1778872 52.6438413,46.1778872" id="Fill-19" fill="#414141" fill-rule="nonzero"></path>
            </g>
        </g>
    </g>
</svg>